<mxfile host="app.diagrams.net" modified="2020-09-04T16:57:05.610Z" agent="5.0 (X11)" etag="RaRe5Myz3IaBlyCb7_ZU" version="13.6.6" type="github">
  <diagram id="C5RBs43oDa-KdzZeNtuy" name="Page-1">
    <mxGraphModel dx="1422" dy="805" grid="1" gridSize="10" guides="1" tooltips="1" connect="1" arrows="1" fold="1" page="1" pageScale="1" pageWidth="9900" pageHeight="9900" math="0" shadow="0">
      <root>
        <mxCell id="WIyWlLk6GJQsqaUBKTNV-0" />
        <mxCell id="WIyWlLk6GJQsqaUBKTNV-1" parent="WIyWlLk6GJQsqaUBKTNV-0" />
        <mxCell id="Dp6MvVSpYbuMeK2W6vsO-2" value="&lt;table style=&quot;width: 100% ; height: 100% ; border-collapse: collapse&quot; width=&quot;100%&quot; cellpadding=&quot;4&quot; border=&quot;1&quot;&gt;&lt;tbody&gt;&lt;tr&gt;&lt;th align=&quot;center&quot;&gt;&amp;lt;&amp;lt;Abstract&amp;gt;&amp;gt;&lt;br&gt;Composizione&lt;br&gt;&lt;/th&gt;&lt;/tr&gt;&lt;tr&gt;&lt;td align=&quot;center&quot;&gt;+tipo:String&lt;br&gt;+dato:Object&lt;br&gt;- peso:Integer&lt;br&gt;&lt;/td&gt;&lt;/tr&gt;&lt;tr&gt;&lt;td align=&quot;center&quot;&gt;+assegnaPeso(peso:Integer):Integer&lt;br&gt;+aggiungi(comp:Composizione):void&lt;br&gt;+rimuovi(comp:Composizione):void&lt;br&gt;+getChild():Composizione&lt;br&gt;&lt;/td&gt;&lt;/tr&gt;&lt;/tbody&gt;&lt;/table&gt;" style="text;html=1;strokeColor=none;fillColor=none;overflow=fill;" vertex="1" parent="WIyWlLk6GJQsqaUBKTNV-1">
          <mxGeometry x="1570" y="2830" width="226" height="170" as="geometry" />
        </mxCell>
        <mxCell id="Dp6MvVSpYbuMeK2W6vsO-4" value="&lt;table style=&quot;width: 100% ; height: 100% ; border-collapse: collapse&quot; width=&quot;100%&quot; cellpadding=&quot;4&quot; border=&quot;1&quot;&gt;&lt;tbody&gt;&lt;tr&gt;&lt;th align=&quot;center&quot;&gt;Composizione&lt;br&gt;&lt;/th&gt;&lt;/tr&gt;&lt;tr&gt;&lt;td align=&quot;center&quot;&gt;&lt;br&gt;&lt;/td&gt;&lt;/tr&gt;&lt;tr&gt;&lt;td align=&quot;center&quot;&gt;+assegnaPeso(peso:Integer):Integer&lt;br&gt;+aggiungi(comp:Composizione):void&lt;br&gt;+rimuovi(comp:Composizione):void&lt;br&gt;+getChild():Composizione&lt;/td&gt;&lt;/tr&gt;&lt;/tbody&gt;&lt;/table&gt;" style="text;html=1;strokeColor=none;fillColor=none;overflow=fill;" vertex="1" parent="WIyWlLk6GJQsqaUBKTNV-1">
          <mxGeometry x="1730" y="3040" width="240" height="140" as="geometry" />
        </mxCell>
        <mxCell id="Dp6MvVSpYbuMeK2W6vsO-5" value="&lt;table style=&quot;width: 100% ; height: 100% ; border-collapse: collapse&quot; width=&quot;100%&quot; cellpadding=&quot;4&quot; border=&quot;1&quot;&gt;&lt;tbody&gt;&lt;tr&gt;&lt;th align=&quot;center&quot;&gt;Dato&lt;br&gt;&lt;/th&gt;&lt;/tr&gt;&lt;tr&gt;&lt;td align=&quot;center&quot;&gt;&lt;br&gt;&lt;/td&gt;&lt;/tr&gt;&lt;tr&gt;&lt;td align=&quot;center&quot;&gt;+ assegnaPeso(peso:Integer):Integer&lt;br&gt;&lt;/td&gt;&lt;/tr&gt;&lt;/tbody&gt;&lt;/table&gt;" style="text;html=1;strokeColor=none;fillColor=none;overflow=fill;" vertex="1" parent="WIyWlLk6GJQsqaUBKTNV-1">
          <mxGeometry x="1440" y="3040" width="220" height="90" as="geometry" />
        </mxCell>
        <mxCell id="Dp6MvVSpYbuMeK2W6vsO-11" value="Extends" style="endArrow=block;endSize=16;endFill=0;html=1;exitX=0.471;exitY=0.014;exitDx=0;exitDy=0;exitPerimeter=0;entryX=0.75;entryY=1;entryDx=0;entryDy=0;" edge="1" parent="WIyWlLk6GJQsqaUBKTNV-1" source="Dp6MvVSpYbuMeK2W6vsO-4" target="Dp6MvVSpYbuMeK2W6vsO-2">
          <mxGeometry x="-0.125" width="160" relative="1" as="geometry">
            <mxPoint x="1770" y="3010" as="sourcePoint" />
            <mxPoint x="1930" y="3010" as="targetPoint" />
            <mxPoint as="offset" />
          </mxGeometry>
        </mxCell>
        <mxCell id="Dp6MvVSpYbuMeK2W6vsO-12" value="Extends" style="endArrow=block;endSize=16;endFill=0;html=1;entryX=0.25;entryY=1;entryDx=0;entryDy=0;exitX=0.5;exitY=0;exitDx=0;exitDy=0;" edge="1" parent="WIyWlLk6GJQsqaUBKTNV-1" source="Dp6MvVSpYbuMeK2W6vsO-5" target="Dp6MvVSpYbuMeK2W6vsO-2">
          <mxGeometry width="160" relative="1" as="geometry">
            <mxPoint x="1490" y="3020" as="sourcePoint" />
            <mxPoint x="1650" y="3020" as="targetPoint" />
          </mxGeometry>
        </mxCell>
        <mxCell id="Dp6MvVSpYbuMeK2W6vsO-22" value="&lt;table style=&quot;width: 100% ; height: 100% ; border-collapse: collapse&quot; width=&quot;100%&quot; cellpadding=&quot;4&quot; border=&quot;1&quot;&gt;&lt;tbody&gt;&lt;tr&gt;&lt;th align=&quot;center&quot;&gt;Contesto&lt;br&gt;&lt;/th&gt;&lt;/tr&gt;&lt;tr&gt;&lt;td align=&quot;center&quot;&gt;+tipo:String&lt;br&gt;+idSensore:int&lt;br&gt;&lt;/td&gt;&lt;/tr&gt;&lt;tr&gt;&lt;td align=&quot;center&quot;&gt;&lt;br&gt;&lt;/td&gt;&lt;/tr&gt;&lt;/tbody&gt;&lt;/table&gt;" style="text;html=1;strokeColor=none;fillColor=none;overflow=fill;" vertex="1" parent="WIyWlLk6GJQsqaUBKTNV-1">
          <mxGeometry x="1260" y="2860" width="160" height="90" as="geometry" />
        </mxCell>
        <mxCell id="Dp6MvVSpYbuMeK2W6vsO-25" value="Relation" style="endArrow=open;html=1;endSize=12;startArrow=diamondThin;startSize=14;startFill=0;edgeStyle=orthogonalEdgeStyle;entryX=1;entryY=0.75;entryDx=0;entryDy=0;" edge="1" parent="WIyWlLk6GJQsqaUBKTNV-1" target="Dp6MvVSpYbuMeK2W6vsO-2">
          <mxGeometry relative="1" as="geometry">
            <mxPoint x="1970" y="3100" as="sourcePoint" />
            <mxPoint x="2130" y="3100" as="targetPoint" />
            <Array as="points">
              <mxPoint x="2010" y="3100" />
              <mxPoint x="2010" y="3090" />
              <mxPoint x="2050" y="3090" />
              <mxPoint x="2050" y="2958" />
            </Array>
          </mxGeometry>
        </mxCell>
        <mxCell id="Dp6MvVSpYbuMeK2W6vsO-26" value="0..n" style="edgeLabel;resizable=0;html=1;align=left;verticalAlign=top;" connectable="0" vertex="1" parent="Dp6MvVSpYbuMeK2W6vsO-25">
          <mxGeometry x="-1" relative="1" as="geometry" />
        </mxCell>
        <mxCell id="Dp6MvVSpYbuMeK2W6vsO-27" value="1" style="edgeLabel;resizable=0;html=1;align=right;verticalAlign=top;" connectable="0" vertex="1" parent="Dp6MvVSpYbuMeK2W6vsO-25">
          <mxGeometry x="1" relative="1" as="geometry">
            <mxPoint x="24.5" as="offset" />
          </mxGeometry>
        </mxCell>
        <mxCell id="Dp6MvVSpYbuMeK2W6vsO-28" value="1" style="endArrow=open;html=1;endSize=12;startArrow=diamondThin;startSize=14;startFill=1;edgeStyle=orthogonalEdgeStyle;align=left;verticalAlign=bottom;entryX=1;entryY=1;entryDx=0;entryDy=0;exitX=0.25;exitY=0;exitDx=0;exitDy=0;" edge="1" parent="WIyWlLk6GJQsqaUBKTNV-1" source="Dp6MvVSpYbuMeK2W6vsO-5" target="Dp6MvVSpYbuMeK2W6vsO-22">
          <mxGeometry x="-0.8788" y="-15" relative="1" as="geometry">
            <mxPoint x="1410" y="2999" as="sourcePoint" />
            <mxPoint x="1570" y="2999" as="targetPoint" />
            <mxPoint as="offset" />
          </mxGeometry>
        </mxCell>
        <mxCell id="Dp6MvVSpYbuMeK2W6vsO-49" value="&lt;table style=&quot;width: 100% ; height: 100% ; border-collapse: collapse&quot; width=&quot;100%&quot; cellpadding=&quot;4&quot; border=&quot;1&quot;&gt;&lt;tbody&gt;&lt;tr&gt;&lt;th align=&quot;center&quot;&gt;&amp;lt;&amp;lt;Interface&amp;gt;&amp;gt;&lt;br&gt;Sensore&lt;br&gt;&lt;/th&gt;&lt;/tr&gt;&lt;tr&gt;&lt;td align=&quot;center&quot;&gt;+add()&lt;br&gt;+remove()&lt;br&gt;+notify()&lt;br&gt;&lt;/td&gt;&lt;/tr&gt;&lt;tr&gt;&lt;td align=&quot;center&quot;&gt;&lt;br&gt;&lt;/td&gt;&lt;/tr&gt;&lt;/tbody&gt;&lt;/table&gt;" style="text;html=1;strokeColor=none;fillColor=none;overflow=fill;" vertex="1" parent="WIyWlLk6GJQsqaUBKTNV-1">
          <mxGeometry x="980" y="2860" width="160" height="90" as="geometry" />
        </mxCell>
        <mxCell id="Dp6MvVSpYbuMeK2W6vsO-51" value="" style="endArrow=block;dashed=1;endFill=0;endSize=12;html=1;entryX=0.013;entryY=0.667;entryDx=0;entryDy=0;entryPerimeter=0;exitX=1.006;exitY=0.667;exitDx=0;exitDy=0;exitPerimeter=0;" edge="1" parent="WIyWlLk6GJQsqaUBKTNV-1" source="Dp6MvVSpYbuMeK2W6vsO-49" target="Dp6MvVSpYbuMeK2W6vsO-22">
          <mxGeometry width="160" relative="1" as="geometry">
            <mxPoint x="1150" y="2920" as="sourcePoint" />
            <mxPoint x="1250" y="2920" as="targetPoint" />
          </mxGeometry>
        </mxCell>
      </root>
    </mxGraphModel>
  </diagram>
</mxfile>
